<svg xmlns="http://www.w3.org/2000/svg" width="280" height="240" viewBox="0 0 280 240" role="img"><title>CRM · соединение</title><g transform="translate(90 62) rotate(0) scale(1)"><path d="M24 123L44 123L43 146Q29 150 19 145L22 134Z" fill="#FFFFFF" stroke="#000000" stroke-width="3" stroke-linecap="round" stroke-linejoin="round"/><path d="M51 123L70 123L75 145Q62 150 49 146Z" fill="#FFFFFF" stroke="#000000" stroke-width="3" stroke-linecap="round" stroke-linejoin="round"/><path d="M28 76Q47 70 65 77Q74 98 73 131L53 133L47 124L41 133L21 130Q20 98 28 76Z" fill="#FFFFFF" stroke="#000000" stroke-width="3" stroke-linecap="round" stroke-linejoin="round"/><path d="M28 78L35 80L35 91L59 91L59 80L65 78L70 131L53 133L47 123L40 133L24 131Z" fill="#0077FF" stroke="#000000" stroke-width="3" stroke-linecap="round" stroke-linejoin="round"/><rect x="33" y="80" width="5" height="20" rx="2" fill="#000000" stroke="#000000" stroke-width="1"/><rect x="34" y="80" width="3" height="8" rx="1" fill="#0077FF" stroke="#000000" stroke-width="1"/><rect x="33" y="98" width="29" height="21" rx="4" fill="#FFFFFF" stroke="#000000" stroke-width="3"/><g transform="translate(47 107) rotate(0) scale(0.65)"><path d="M0 -4C-8 -13 -14 -4 -6 4L1 10C9 17 15 8 7 0Z" fill="#FFFFFF" stroke="#000000" stroke-width="1.5" stroke-linecap="round" stroke-linejoin="round"/><path d="M1 1C6 -4 14 4 10 9C7 13 1 9 1 1Z" fill="#000000" stroke="#000000" stroke-width="1" stroke-linecap="round" stroke-linejoin="round"/></g><circle cx="31" cy="91" r="2" fill="#FFFFFF" stroke="#000000" stroke-width="1"/><circle cx="63" cy="91" r="2" fill="#FFFFFF" stroke="#000000" stroke-width="1"/><path d="M9 28Q12 17 21 5Q26 -3 31 6L39 18Q52 16 64 19L72 9Q78 1 81 11L87 30Q95 41 91 60Q89 75 73 79Q48 84 22 77Q7 73 5 57Q2 40 9 28Z" fill="#FFFFFF" stroke="#000000" stroke-width="3" stroke-linecap="round" stroke-linejoin="round"/><path d="M18 34Q49 24 78 35Q84 39 83 55Q83 66 74 68Q46 75 20 66Q14 63 14 51Q13 39 18 34Z" fill="#000000" stroke="#000000" stroke-width="3" stroke-linecap="round" stroke-linejoin="round"/><circle cx="30" cy="49" r="2.4" fill="#FFFFFF" stroke="#FFFFFF" stroke-width="1"/><circle cx="64" cy="49" r="2.4" fill="#FFFFFF" stroke="#FFFFFF" stroke-width="1"/><path d="M43 62Q49 64 54 60" fill="none" stroke="#FFFFFF" stroke-width="2" stroke-linecap="round" stroke-linejoin="round"/><path d="M28 38L31 37" fill="none" stroke="#FFFFFF" stroke-width="2" stroke-linecap="round" stroke-linejoin="round"/><path d="M63 38L66 39" fill="none" stroke="#FFFFFF" stroke-width="2" stroke-linecap="round" stroke-linejoin="round"/><path d="M17 25Q25 8 43 12Q58 12 64 24L17 25Z" fill="#0077FF" stroke="#000000" stroke-width="3" stroke-linecap="round" stroke-linejoin="round"/><path d="M17 25Q43 19 72 25Q78 29 69 31L17 31Z" fill="#FFFFFF" stroke="#000000" stroke-width="3" stroke-linecap="round" stroke-linejoin="round"/><path d="M22.01 82.48Q14.88 106.00 36.04 112.09Q39.92025150500073 108.68711800117664 37.96 103.91Q25.12 102.00 33.99 87.52Z" fill="#FFFFFF" stroke="#000000" stroke-width="2.7" stroke-linecap="round" stroke-linejoin="round"/><path d="M60.13 87.78Q69.74 102.40 57.98 103.93Q56.08957249956401 108.727606875109 60.02 112.07Q80.26 105.60 71.87 82.22Z" fill="#FFFFFF" stroke="#000000" stroke-width="2.7" stroke-linecap="round" stroke-linejoin="round"/></g><path d="M34 211C20 159 94 146 119 171M248 211C265 159 189 145 162 171" fill="none" stroke="#0077FF" stroke-width="3" stroke-linecap="round" stroke-linejoin="round"/><rect x="119" y="165" width="19" height="12" rx="3" fill="#FFFFFF" stroke="#000000" stroke-width="3"/><rect x="150" y="165" width="19" height="12" rx="3" fill="#FFFFFF" stroke="#000000" stroke-width="3"/><path d="M138 168L144 168" fill="none" stroke="#000000" stroke-width="2" stroke-linecap="round" stroke-linejoin="round"/><path d="M138 174L144 174" fill="none" stroke="#000000" stroke-width="2" stroke-linecap="round" stroke-linejoin="round"/><g transform="translate(126 171) rotate(0) scale(0.85)"><path d="M-5 -4Q-9 0 -5 5Q0 8 6 3Q9 0 5 -3L0 -3Q-2 -7 -5 -4Z" fill="#FFFFFF" stroke="#000000" stroke-width="2.5" stroke-linecap="round" stroke-linejoin="round"/><path d="M0 1L4 1" fill="none" stroke="#000000" stroke-width="1.5" stroke-linecap="round" stroke-linejoin="round"/></g><g transform="translate(157 171) rotate(0) scale(0.85)"><path d="M-5 -4Q-9 0 -5 5Q0 8 6 3Q9 0 5 -3L0 -3Q-2 -7 -5 -4Z" fill="#FFFFFF" stroke="#000000" stroke-width="2.5" stroke-linecap="round" stroke-linejoin="round"/><path d="M0 1L4 1" fill="none" stroke="#000000" stroke-width="1.5" stroke-linecap="round" stroke-linejoin="round"/></g><path d="M20 213L260 213" fill="none" stroke="#000000" stroke-width="2" stroke-linecap="round" stroke-linejoin="round"/></svg>