<svg xmlns="http://www.w3.org/2000/svg" width="280" height="240" viewBox="0 0 280 240" role="img"><title>Ищем исполнителя</title><g transform="translate(90 62) rotate(0) scale(1)"><path d="M24 123L44 123L43 146Q29 150 19 145L22 134Z" fill="#FFFFFF" stroke="#000000" stroke-width="3" stroke-linecap="round" stroke-linejoin="round"/><path d="M51 123L70 123L75 145Q62 150 49 146Z" fill="#FFFFFF" stroke="#000000" stroke-width="3" stroke-linecap="round" stroke-linejoin="round"/><path d="M28 76Q47 70 65 77Q74 98 73 131L53 133L47 124L41 133L21 130Q20 98 28 76Z" fill="#FFFFFF" stroke="#000000" stroke-width="3" stroke-linecap="round" stroke-linejoin="round"/><path d="M29 80L36 80L39 90L56 90L59 80L65 80L69 128L25 128Z" fill="#0077FF" stroke="#000000" stroke-width="3" stroke-linecap="round" stroke-linejoin="round"/><g transform="translate(46 107) rotate(0) scale(0.65)"><path d="M0 -4C-8 -13 -14 -4 -6 4L1 10C9 17 15 8 7 0Z" fill="#FFFFFF" stroke="#000000" stroke-width="1.5" stroke-linecap="round" stroke-linejoin="round"/><path d="M1 1C6 -4 14 4 10 9C7 13 1 9 1 1Z" fill="#000000" stroke="#000000" stroke-width="1" stroke-linecap="round" stroke-linejoin="round"/></g><path d="M9 28Q12 17 21 5Q26 -3 31 6L39 18Q52 16 64 19L72 9Q78 1 81 11L87 30Q95 41 91 60Q89 75 73 79Q48 84 22 77Q7 73 5 57Q2 40 9 28Z" fill="#FFFFFF" stroke="#000000" stroke-width="3" stroke-linecap="round" stroke-linejoin="round"/><path d="M18 34Q49 24 78 35Q84 39 83 55Q83 66 74 68Q46 75 20 66Q14 63 14 51Q13 39 18 34Z" fill="#000000" stroke="#000000" stroke-width="3" stroke-linecap="round" stroke-linejoin="round"/><circle cx="30" cy="49" r="2.4" fill="#FFFFFF" stroke="#FFFFFF" stroke-width="1"/><circle cx="64" cy="49" r="2.4" fill="#FFFFFF" stroke="#FFFFFF" stroke-width="1"/><path d="M43 62Q49 64 54 60" fill="none" stroke="#FFFFFF" stroke-width="2" stroke-linecap="round" stroke-linejoin="round"/><path d="M28 38L31 37" fill="none" stroke="#FFFFFF" stroke-width="2" stroke-linecap="round" stroke-linejoin="round"/><path d="M63 38L66 39" fill="none" stroke="#FFFFFF" stroke-width="2" stroke-linecap="round" stroke-linejoin="round"/><path d="M8 44Q4 17 36 16M88 45Q93 22 73 17" fill="none" stroke="#000000" stroke-width="4" stroke-linecap="round" stroke-linejoin="round"/><rect x="2" y="43" width="10" height="20" rx="4" fill="#0077FF" stroke="#000000" stroke-width="3"/><rect x="85" y="43" width="10" height="20" rx="4" fill="#0077FF" stroke="#000000" stroke-width="3"/><path d="M90 61Q88 76 61 72" fill="none" stroke="#000000" stroke-width="3" stroke-linecap="round" stroke-linejoin="round"/><rect x="56" y="69" width="10" height="6" rx="3" fill="#0077FF" stroke="#000000" stroke-width="3"/><path d="M30.75 74.11Q18.39 71.92 27.21 62.71Q25.937826724398523 57.70984114389266 20.79 57.29Q7.61 74.08 25.25 85.89Z" fill="#FFFFFF" stroke="#000000" stroke-width="2.7" stroke-linecap="round" stroke-linejoin="round"/><path d="M68.75 85.89Q86.39 74.08 73.21 57.29Q68.06217327560148 57.70984114389266 66.79 62.71Q75.61 71.92 63.25 74.11Z" fill="#FFFFFF" stroke="#000000" stroke-width="2.7" stroke-linecap="round" stroke-linejoin="round"/><g transform="translate(17 20) rotate(0) scale(0.81)"><path d="M11 7L29 7L33 23L40 23L44 7L62 7L72 46L3 46Z" fill="#000000" stroke="#000000" stroke-width="3" stroke-linecap="round" stroke-linejoin="round"/><circle cx="19" cy="43" r="16" fill="#FFFFFF" stroke="#000000" stroke-width="3"/><circle cx="56" cy="43" r="16" fill="#FFFFFF" stroke="#000000" stroke-width="3"/><circle cx="19" cy="43" r="9" fill="#0077FF" stroke="#000000" stroke-width="3"/><circle cx="56" cy="43" r="9" fill="#0077FF" stroke="#000000" stroke-width="3"/><path d="M30 22L43 22" fill="none" stroke="#FFFFFF" stroke-width="3" stroke-linecap="round" stroke-linejoin="round"/></g><g transform="translate(25 61) rotate(60) scale(0.85)"><path d="M-5 -4Q-9 0 -5 5Q0 8 6 3Q9 0 5 -3L0 -3Q-2 -7 -5 -4Z" fill="#FFFFFF" stroke="#000000" stroke-width="2.5" stroke-linecap="round" stroke-linejoin="round"/><path d="M0 1L4 1" fill="none" stroke="#000000" stroke-width="1.5" stroke-linecap="round" stroke-linejoin="round"/></g><g transform="translate(70 61) rotate(-60) scale(0.85)"><path d="M-5 -4Q-9 0 -5 5Q0 8 6 3Q9 0 5 -3L0 -3Q-2 -7 -5 -4Z" fill="#FFFFFF" stroke="#000000" stroke-width="2.5" stroke-linecap="round" stroke-linejoin="round"/><path d="M0 1L4 1" fill="none" stroke="#000000" stroke-width="1.5" stroke-linecap="round" stroke-linejoin="round"/></g></g><g transform="translate(125 44) rotate(0) scale(1)"><path d="M0 4L-5 -3M12 0L12 -9M24 4L29 -3" fill="none" stroke="#0077FF" stroke-width="2.5" stroke-linecap="round" stroke-linejoin="round"/></g><path d="M20 213L260 213" fill="none" stroke="#000000" stroke-width="2" stroke-linecap="round" stroke-linejoin="round"/></svg>