<svg xmlns="http://www.w3.org/2000/svg" width="280" height="240" viewBox="0 0 280 240" role="img"><title>Ждём ответа</title><g transform="translate(90 62) rotate(0) scale(1)"><path d="M24 123L44 123L43 146Q29 150 19 145L22 134Z" fill="#FFFFFF" stroke="#000000" stroke-width="3" stroke-linecap="round" stroke-linejoin="round"/><path d="M51 123L70 123L75 145Q62 150 49 146Z" fill="#FFFFFF" stroke="#000000" stroke-width="3" stroke-linecap="round" stroke-linejoin="round"/><path d="M28 76Q47 70 65 77Q74 98 73 131L53 133L47 124L41 133L21 130Q20 98 28 76Z" fill="#FFFFFF" stroke="#000000" stroke-width="3" stroke-linecap="round" stroke-linejoin="round"/><path d="M29 80L36 80L39 90L56 90L59 80L65 80L69 128L25 128Z" fill="#0077FF" stroke="#000000" stroke-width="3" stroke-linecap="round" stroke-linejoin="round"/><g transform="translate(46 107) rotate(0) scale(0.65)"><path d="M0 -4C-8 -13 -14 -4 -6 4L1 10C9 17 15 8 7 0Z" fill="#FFFFFF" stroke="#000000" stroke-width="1.5" stroke-linecap="round" stroke-linejoin="round"/><path d="M1 1C6 -4 14 4 10 9C7 13 1 9 1 1Z" fill="#000000" stroke="#000000" stroke-width="1" stroke-linecap="round" stroke-linejoin="round"/></g><path d="M9 28Q12 17 21 5Q26 -3 31 6L39 18Q52 16 64 19L72 9Q78 1 81 11L87 30Q95 41 91 60Q89 75 73 79Q48 84 22 77Q7 73 5 57Q2 40 9 28Z" fill="#FFFFFF" stroke="#000000" stroke-width="3" stroke-linecap="round" stroke-linejoin="round"/><path d="M18 34Q49 24 78 35Q84 39 83 55Q83 66 74 68Q46 75 20 66Q14 63 14 51Q13 39 18 34Z" fill="#000000" stroke="#000000" stroke-width="3" stroke-linecap="round" stroke-linejoin="round"/><circle cx="33" cy="49" r="2.4" fill="#FFFFFF" stroke="#FFFFFF" stroke-width="1"/><circle cx="67" cy="49" r="2.4" fill="#FFFFFF" stroke="#FFFFFF" stroke-width="1"/><path d="M43 62Q49 64 54 60" fill="none" stroke="#FFFFFF" stroke-width="2" stroke-linecap="round" stroke-linejoin="round"/><path d="M28 38L31 37" fill="none" stroke="#FFFFFF" stroke-width="2" stroke-linecap="round" stroke-linejoin="round"/><path d="M63 38L66 39" fill="none" stroke="#FFFFFF" stroke-width="2" stroke-linecap="round" stroke-linejoin="round"/><path d="M8 44Q4 17 36 16M88 45Q93 22 73 17" fill="none" stroke="#000000" stroke-width="4" stroke-linecap="round" stroke-linejoin="round"/><rect x="2" y="43" width="10" height="20" rx="4" fill="#0077FF" stroke="#000000" stroke-width="3"/><rect x="85" y="43" width="10" height="20" rx="4" fill="#0077FF" stroke="#000000" stroke-width="3"/><path d="M90 61Q88 76 61 72" fill="none" stroke="#000000" stroke-width="3" stroke-linecap="round" stroke-linejoin="round"/><rect x="56" y="69" width="10" height="6" rx="3" fill="#0077FF" stroke="#000000" stroke-width="3"/><path d="M22.89 80.98Q11.81 97.19 16.02 109.33Q20.948683298050515 110.84604989415155 23.98 106.67Q22.19 100.81 33.11 89.02Z" fill="#FFFFFF" stroke="#000000" stroke-width="2.7" stroke-linecap="round" stroke-linejoin="round"/><g transform="translate(20 108) rotate(0) scale(0.85)"><path d="M-5 -4Q-9 0 -5 5Q0 8 6 3Q9 0 5 -3L0 -3Q-2 -7 -5 -4Z" fill="#FFFFFF" stroke="#000000" stroke-width="2.5" stroke-linecap="round" stroke-linejoin="round"/><path d="M0 1L4 1" fill="none" stroke="#000000" stroke-width="1.5" stroke-linecap="round" stroke-linejoin="round"/></g><path d="M60.25 88.03Q70.94 101.83 56.56 101.82Q54.01648364123578 106.31405435355413 57.44 110.18Q81.06 106.17 71.75 81.97Z" fill="#FFFFFF" stroke="#000000" stroke-width="2.7" stroke-linecap="round" stroke-linejoin="round"/><rect x="61" y="99" width="8" height="14" rx="2" fill="#0077FF" stroke="#000000" stroke-width="3"/><circle cx="65" cy="106" r="6" fill="#FFFFFF" stroke="#000000" stroke-width="3"/><path d="M65 102L65 106L68 108" fill="none" stroke="#0077FF" stroke-width="1.5" stroke-linecap="round" stroke-linejoin="round"/><g transform="translate(56 106) rotate(0) scale(0.85)"><path d="M-5 -4Q-9 0 -5 5Q0 8 6 3Q9 0 5 -3L0 -3Q-2 -7 -5 -4Z" fill="#FFFFFF" stroke="#000000" stroke-width="2.5" stroke-linecap="round" stroke-linejoin="round"/><path d="M0 1L4 1" fill="none" stroke="#000000" stroke-width="1.5" stroke-linecap="round" stroke-linejoin="round"/></g></g><g transform="translate(205 78) rotate(0) scale(0.49)"><circle cx="31" cy="31" r="27" fill="#FFFFFF" stroke="#000000" stroke-width="3"/><path d="M31 13L31 31L45 39" fill="none" stroke="#0077FF" stroke-width="4" stroke-linecap="round" stroke-linejoin="round"/><path d="M31 8L31 10M8 31L10 31M52 31L54 31M31 52L31 54" fill="none" stroke="#000000" stroke-width="2" stroke-linecap="round" stroke-linejoin="round"/></g><path d="M20 213L260 213" fill="none" stroke="#000000" stroke-width="2" stroke-linecap="round" stroke-linejoin="round"/></svg>